
        <svg xmlns="http://www.w3.org/2000/svg" xmlns:xlink="http://www.w3.org/1999/xlink" version="1.1" width="3232.5872012641303" 
        height="880.6531837822052" viewBox="0 0 3232.5872012641303 880.6531837822052">
			
			<g transform="scale(11.629360063206512) translate(10, 10)">
				<defs id="SvgjsDefs1488"></defs><g id="SvgjsG1489"  transform="matrix(1.0319761219237567,0,0,1.0319761219237567,-5.159880609618783,-23.76742692617016)" fill="#11998e"><g xmlns="http://www.w3.org/2000/svg"><path d="M5,59c0,9.9,8.1,18,18,18c8.7,0,16-6.2,17.6-14.5l5.2,0.5c0.1,0,0.1,0,0.2,0c0.6,0,1.1-0.2,1.5-0.6l22.4-24.2l1,4   C64,44.6,59,51.2,59,59c0,9.9,8.1,18,18,18s18-8.1,18-18s-8.1-18-18-18c-0.8,0-1.5,0.1-2.2,0.2L71.6,28H77c1.1,0,2,0.9,2,2   s-0.9,2-2,2c-1.1,0-2,0.9-2,2s0.9,2,2,2c3.3,0,6-2.7,6-6s-2.7-6-6-6h-7.9c-0.6,0-1.2,0.3-1.6,0.8c-0.4,0.5-0.5,1.1-0.4,1.7l1.3,5.5   H40.7l-1-4H44c1.1,0,2-0.9,2-2s-0.9-2-2-2H34c-1.1,0-2,0.9-2,2s0.9,2,2,2h1.6l1.4,5.5l-6,9.4C28.5,41.7,25.9,41,23,41   C13.1,41,5,49.1,5,59z M71.8,46l3.2,13.5c0.2,0.9,1,1.5,1.9,1.5c0.2,0,0.3,0,0.5-0.1c1.1-0.3,1.7-1.3,1.5-2.4l-3.2-13.5   c0.4,0,0.9-0.1,1.3-0.1c7.7,0,14,6.3,14,14s-6.3,14-14,14s-14-6.3-14-14C63,53.1,66.7,48.1,71.8,46z M38.3,38.8l5.1,20L41,58.6   c-0.1-5.5-2.7-10.3-6.7-13.5L38.3,38.8z M37,58.2l-10.5-0.9l5.7-8.9C34.9,50.8,36.7,54.3,37,58.2z M66.4,36L47,56.9L41.7,36H66.4z    M9,59c0-7.7,6.3-14,14-14c2.1,0,4,0.5,5.8,1.3l-7.5,11.7c-0.4,0.6-0.4,1.3-0.1,2c0.3,0.6,0.9,1,1.6,1.1l13.8,1.2   C35.2,68.4,29.6,73,23,73C15.3,73,9,66.7,9,59z"></path></g></g><g id="SvgjsG1490" transform="matrix(2.7975253531421913,0,0,2.7975253531421913,107.57280065482847,-13.651924043485263)" fill="#11998e"><path d="M6.38 18.8 q1.7 0 2.6 -0.73 t0.9 -1.99 q0 -1.36 -0.93 -2.14 t-2.43 -0.78 l-3.26 0 l0 5.64 l3.12 0 z M6.08 11.96 q1.44 0 2.31 -0.62 t0.87 -1.76 q0 -2.48 -3 -2.54 l-3 0 l0 4.92 l2.82 0 z M6.12 5.84 q2.22 0 3.33 0.9 t1.13 2.84 q0 1.12 -0.66 1.91 t-1.88 1.03 l0 0.04 q1.38 0.08 2.26 1.04 t0.9 2.44 q0 1.88 -1.25 2.91 t-3.45 1.05 l-4.56 0 l0 -14.16 l4.18 0 z M14.4 10.76 l1.2 0 l0 9.24 l-1.2 0 l0 -9.24 z M15 6.199999999999999 q0.4 0 0.65 0.26 t0.25 0.64 t-0.25 0.64 t-0.65 0.26 q-0.38 0 -0.64 -0.26 t-0.26 -0.64 t0.26 -0.64 t0.64 -0.26 z M19 4.880000000000001 l1.2 0 l0 10.08 l4.58 -4.2 l1.76 0 l-4.78 4.24 l5.32 5 l-1.82 0 l-5.06 -4.88 l0 4.88 l-1.2 0 l0 -15.12 z M35.86 14.6 q0 -1.26 -0.94 -2.13 t-2.28 -0.87 q-1.3 0 -2.24 0.87 t-1.1 2.13 l6.56 0 z M32.72 10.52 q1.92 0 3.12 1.24 t1.22 3.2 l0 0.72 l-7.76 0 q0.08 1.56 1.03 2.51 t2.47 0.97 q0.94 0 1.79 -0.45 t1.31 -1.19 l0.88 0.74 q-1.3 1.98 -4 1.98 q-2.12 -0.02 -3.39 -1.38 t-1.29 -3.5 q0 -2.08 1.31 -3.45 t3.31 -1.39 z M43.86 10.52 q0.34 0 0.7 0.1 l-0.14 1.18 q-0.22 -0.08 -0.48 -0.08 q-1.46 0 -2.23 0.9 t-0.77 2.34 l0 5.04 l-1.2 0 l0 -6.74 q0 -0.2 -0.1 -2.5 l1.2 0 q0.04 1.38 0.08 1.62 q1.04 -1.86 2.94 -1.86 z M46.44 10.76 l3.06 7.78 l2.98 -7.78 l1.28 0 l-4.74 12.06 q-0.78 1.98 -2.56 1.98 q-0.56 0 -1.18 -0.18 l0.12 -1.12 q0.66 0.22 1.08 0.22 q0.46 0 0.82 -0.32 t0.7 -1.16 l0.86 -2.2 l-3.76 -9.28 l1.34 0 z"></path></g>
			</g>
		</svg>
	